# xmcd CD database file
#
# Track frame offsets:
#	225
#	18070
#	35260
#	51940
#	71839
#	91483
#
# Disc length: 1456 seconds
#
# Revision: 0
# Processed by: cddbd v1.5.2PL0 Copyright (c) Steve Scherf et al.
# Submitted via: CDex 1.75
#
DISCID=4705ad06
DTITLE=Megaswing - Megaswing Trio
DYEAR=2009
DGENRE=Jazz
TTITLE0=Ca swing terrible
TTITLE1=Plou's shuffle
TTITLE2=When I grow to old to dream
TTITLE3=I surrender dear
TTITLE4=Do like Eddie
TTITLE5=Just friends
EXTD=YEAR: 2009
EXTT0=
EXTT1=
EXTT2=
EXTT3=
EXTT4=
EXTT5=
PLAYORDER=
